<svg xmlns="http://www.w3.org/2000/svg" width="512" height="512" viewBox="0 0 512 512" shape-rendering="crispEdges" role="img" aria-label="cclimit"><title>cclimit</title><rect width="512" height="512" fill="#0a0a0c"/><rect x="48" y="112" width="32" height="32" fill="#f2f2f0"/><rect x="80" y="112" width="32" height="32" fill="#f2f2f0"/><rect x="112" y="112" width="32" height="32" fill="#f2f2f0"/><rect x="144" y="112" width="32" height="32" fill="#f2f2f0"/><rect x="176" y="112" width="32" height="32" fill="#f2f2f0"/><rect x="208" y="112" width="32" height="32" fill="#f2f2f0"/><rect x="240" y="112" width="32" height="32" fill="#f2f2f0"/><rect x="272" y="112" width="32" height="32" fill="#f2f2f0"/><rect x="304" y="112" width="32" height="32" fill="#f2f2f0"/><rect x="336" y="112" width="32" height="32" fill="#f2f2f0"/><rect x="368" y="112" width="32" height="32" fill="#f2f2f0"/><rect x="400" y="112" width="32" height="32" fill="#f2f2f0"/><rect x="48" y="144" width="32" height="32" fill="#f2f2f0"/><rect x="400" y="144" width="32" height="32" fill="#f2f2f0"/><rect x="48" y="176" width="32" height="32" fill="#f2f2f0"/><rect x="112" y="176" width="32" height="32" fill="#f2f2f0"/><rect x="144" y="176" width="32" height="32" fill="#f2f2f0"/><rect x="208" y="176" width="32" height="32" fill="#f2f2f0"/><rect x="240" y="176" width="32" height="32" fill="#f2f2f0"/><rect x="304" y="176" width="32" height="32" fill="#ff7a3c"/><rect x="336" y="176" width="32" height="32" fill="#ff7a3c"/><rect x="400" y="176" width="32" height="32" fill="#f2f2f0"/><rect x="48" y="208" width="32" height="32" fill="#f2f2f0"/><rect x="112" y="208" width="32" height="32" fill="#f2f2f0"/><rect x="144" y="208" width="32" height="32" fill="#f2f2f0"/><rect x="208" y="208" width="32" height="32" fill="#f2f2f0"/><rect x="240" y="208" width="32" height="32" fill="#f2f2f0"/><rect x="304" y="208" width="32" height="32" fill="#ff7a3c"/><rect x="336" y="208" width="32" height="32" fill="#ff7a3c"/><rect x="400" y="208" width="32" height="32" fill="#f2f2f0"/><rect x="432" y="208" width="32" height="32" fill="#f2f2f0"/><rect x="48" y="240" width="32" height="32" fill="#f2f2f0"/><rect x="112" y="240" width="32" height="32" fill="#f2f2f0"/><rect x="144" y="240" width="32" height="32" fill="#f2f2f0"/><rect x="208" y="240" width="32" height="32" fill="#f2f2f0"/><rect x="240" y="240" width="32" height="32" fill="#f2f2f0"/><rect x="304" y="240" width="32" height="32" fill="#ff7a3c"/><rect x="336" y="240" width="32" height="32" fill="#ff7a3c"/><rect x="400" y="240" width="32" height="32" fill="#f2f2f0"/><rect x="432" y="240" width="32" height="32" fill="#f2f2f0"/><rect x="48" y="272" width="32" height="32" fill="#f2f2f0"/><rect x="112" y="272" width="32" height="32" fill="#f2f2f0"/><rect x="144" y="272" width="32" height="32" fill="#f2f2f0"/><rect x="208" y="272" width="32" height="32" fill="#f2f2f0"/><rect x="240" y="272" width="32" height="32" fill="#f2f2f0"/><rect x="304" y="272" width="32" height="32" fill="#ff7a3c"/><rect x="336" y="272" width="32" height="32" fill="#ff7a3c"/><rect x="400" y="272" width="32" height="32" fill="#f2f2f0"/><rect x="432" y="272" width="32" height="32" fill="#f2f2f0"/><rect x="48" y="304" width="32" height="32" fill="#f2f2f0"/><rect x="112" y="304" width="32" height="32" fill="#f2f2f0"/><rect x="144" y="304" width="32" height="32" fill="#f2f2f0"/><rect x="208" y="304" width="32" height="32" fill="#f2f2f0"/><rect x="240" y="304" width="32" height="32" fill="#f2f2f0"/><rect x="304" y="304" width="32" height="32" fill="#ff7a3c"/><rect x="336" y="304" width="32" height="32" fill="#ff7a3c"/><rect x="400" y="304" width="32" height="32" fill="#f2f2f0"/><rect x="48" y="336" width="32" height="32" fill="#f2f2f0"/><rect x="400" y="336" width="32" height="32" fill="#f2f2f0"/><rect x="48" y="368" width="32" height="32" fill="#f2f2f0"/><rect x="80" y="368" width="32" height="32" fill="#f2f2f0"/><rect x="112" y="368" width="32" height="32" fill="#f2f2f0"/><rect x="144" y="368" width="32" height="32" fill="#f2f2f0"/><rect x="176" y="368" width="32" height="32" fill="#f2f2f0"/><rect x="208" y="368" width="32" height="32" fill="#f2f2f0"/><rect x="240" y="368" width="32" height="32" fill="#f2f2f0"/><rect x="272" y="368" width="32" height="32" fill="#f2f2f0"/><rect x="304" y="368" width="32" height="32" fill="#f2f2f0"/><rect x="336" y="368" width="32" height="32" fill="#f2f2f0"/><rect x="368" y="368" width="32" height="32" fill="#f2f2f0"/><rect x="400" y="368" width="32" height="32" fill="#f2f2f0"/></svg>
